<svg id="Layer_1" data-name="Layer 1" xmlns="http://www.w3.org/2000/svg" viewBox="0 0 240.94 41.9"><defs><style>.cls-1{fill:#ba2325;}.cls-1,.cls-2,.cls-3{fill-rule:evenodd;}.cls-2{fill:#2b3d81;}.cls-3{fill:#fff;}</style></defs><title>Ole_Løvold_Logo</title><path class="cls-1" d="M32.06,25.32A3.21,3.21,0,0,1,34.52,27a13.05,13.05,0,0,1,1.8,6.3c0,1.56-.87,2.6-2.16,2.6A2.69,2.69,0,0,1,32,34.53a14.18,14.18,0,0,1-2.08-6.6A2.38,2.38,0,0,1,32.06,25.32Zm1.17-3.61c-5.55,0-9.67,3.8-9.67,8.91s4.07,9,9.45,9,9.8-3.85,9.8-8.7a9.64,9.64,0,0,0-3.73-7.31A9.48,9.48,0,0,0,33.23,21.71Zm19,5.84c0-2.27.11-2.7.75-3l.49-.2a1,1,0,0,0,.76-1,1.12,1.12,0,0,0-.69-1c-.78-.43-2-.59-4.62-.59a9.5,9.5,0,0,0-4.07.61c-.71.33-1,.72-1,1.2s.33.8,1.49,1.18c.68.23.84.59.85,1.92,0,.78,0,1.84.06,3.15,0,.44,0,.89,0,1.33,0,1.1,0,1.51,0,2v1.7c0,1.33-.29,1.9-1.09,2.27l-.51.24a.84.84,0,0,0-.5.77,1,1,0,0,0,.52.87,2.24,2.24,0,0,0,1.25.2h9a5.62,5.62,0,0,1,1,.07l.72.14a5.73,5.73,0,0,0,1.08.13c.54,0,.84-.22,1.35-1a6.44,6.44,0,0,0,1.18-3.32c0-1.28-.63-2.16-1.54-2.16-.49,0-.73.23-.88.81a3.15,3.15,0,0,1-3.5,2.6c-1.78,0-2.12-.51-2.12-3.19Zm11-5.49a6.93,6.93,0,0,0-2.1.17,1.14,1.14,0,0,0-.73,1.08.91.91,0,0,0,.73.94c.52.16.57.18.7.3a2.83,2.83,0,0,1,.6,1.71A44.13,44.13,0,0,1,62.69,31a24.54,24.54,0,0,1-.42,5.12,1.34,1.34,0,0,1-.86,1.12c-.74.33-.86.45-.86.94,0,.69.5,1.08,1.36,1.08h10.9a14.38,14.38,0,0,1,2.19.18,4.75,4.75,0,0,0,.71.08c.39,0,.59-.14,1-.72a8.53,8.53,0,0,0,1.38-3.89c0-.93-.52-1.61-1.24-1.61s-.93.26-1.4,1.23c-.82,1.68-1.93,2.24-4.46,2.24a5.86,5.86,0,0,1-2.16-.27c-.22-.11-.32-.34-.38-.82-.1-.89-.17-1.85-.17-2.36,0-1.27.24-1.67,1-1.67A1.47,1.47,0,0,1,70.94,33c.14,1,.28,1.13.87,1.13a1.17,1.17,0,0,0,1-.69,7.87,7.87,0,0,0,.63-3.25A6.73,6.73,0,0,0,72.85,27a1.15,1.15,0,0,0-.9-.5,1.05,1.05,0,0,0-.64.22c-.34.29-.4.44-.54,1.49-.1.77-.36,1-1.13,1-1.51,0-1.58-.06-1.57-1.49l0-1.77c0-1.2.44-1.51,2.16-1.51,2.48,0,3.39.32,4.14,1.42.53.79.73.93,1.29.93.83,0,1.33-.67,1.33-1.77,0-1.8-1-3.46-2-3.46a2,2,0,0,0-.42.07L74,21.8a21.52,21.52,0,0,1-4.19.26Zm30.35,5.49c0-2.27.11-2.7.75-3l.49-.2a1,1,0,0,0,.76-1,1.12,1.12,0,0,0-.69-1c-.78-.43-2-.59-4.62-.59a9.5,9.5,0,0,0-4.07.61c-.71.33-1,.72-1,1.2s.33.8,1.49,1.18c.68.23.84.59.85,1.92,0,.78,0,1.84.06,3.15,0,.44,0,.89,0,1.33,0,1.1,0,1.51,0,2v1.7c0,1.33-.29,1.9-1.09,2.27l-.51.24a.84.84,0,0,0-.5.77,1,1,0,0,0,.53.87,2.17,2.17,0,0,0,1.24.2h9a5.55,5.55,0,0,1,1,.07l.71.14a5.91,5.91,0,0,0,1.09.13c.54,0,.84-.22,1.35-1a6.44,6.44,0,0,0,1.18-3.32c0-1.28-.63-2.16-1.54-2.16-.49,0-.73.23-.88.81a3.15,3.15,0,0,1-3.5,2.6c-1.78,0-2.12-.51-2.12-3.19Zm16.09,3.67c-.25.21-.35.27-.44.27s-.21-.13-.35-.69l-.17-.68a12.56,12.56,0,0,1-.29-2.21,2.37,2.37,0,0,1,2.13-2.6,2.93,2.93,0,0,1,2.28,1.41c.43.57.59.88.59,1.1s-.06.27-.44.59ZM113.63,30c.31-.26.35-.28.45-.28s.22.13.34.67l.12.52a13.8,13.8,0,0,1,.28,2.35c0,1.62-.82,2.61-2.15,2.61a2.66,2.66,0,0,1-2.16-1.3c-.46-.67-.61-1-.61-1.23s0-.21.44-.55Zm4.67-6.1a.33.33,0,0,1-.21.1c-.07,0-.1,0-.21-.12a8.45,8.45,0,0,0-1.74-1.14,10.78,10.78,0,0,0-4.57-1,10.89,10.89,0,0,0-6,1.79,8.68,8.68,0,0,0-3.53,7.12,8.83,8.83,0,0,0,1.6,5l.09.12.09.12a.32.32,0,0,1,.08.17.12.12,0,0,1,0,.08l-.09.08-1.29,1.09a.65.65,0,0,0-.27.47.61.61,0,0,0,.15.38l.29.31a.75.75,0,0,0,.46.21c.12,0,.19-.05.4-.21l1.36-1.11c.12-.11.13-.11.18-.11s.11,0,.23.14a10.11,10.11,0,0,0,6.24,2.17c5.48,0,9.76-3.84,9.76-8.76a8.86,8.86,0,0,0-1.84-5.29l-.07-.09c-.09-.11-.11-.15-.11-.2s0-.1.14-.18l1.39-1.15a.63.63,0,0,0,.25-.45.86.86,0,0,0-.18-.47l-.2-.23a.78.78,0,0,0-.5-.25.62.62,0,0,0-.38.13ZM140.11,26a4.73,4.73,0,0,1,1-1.42c.2-.15.3-.17,1-.25s1.11-.48,1.11-1.07c0-1-1-1.42-3.73-1.42s-4.1.49-4.1,1.48c0,.39.19.65.68.89s.6.41.6.73A2.84,2.84,0,0,1,136.3,26l-1,2.12c-.77,1.64-1.1,2.06-1.66,2.06-.33,0-.52-.19-.79-.78l-1.6-3.55A2.33,2.33,0,0,1,131,25c0-.2.16-.39.52-.64.52-.36.67-.58.67-1,0-.58-.45-1-1.23-1.23a17.28,17.28,0,0,0-3.84-.37c-3.35,0-5.23.72-5.23,2a.88.88,0,0,0,.76.94c.89.15,1.21.46,1.81,1.76l5.25,11.34c.39.84.53,1,.92,1.32a2.17,2.17,0,0,0,1.29.39c1,0,1.54-.45,2.27-1.9Zm12-.64A3.18,3.18,0,0,1,154.59,27a13.07,13.07,0,0,1,1.81,6.3c0,1.56-.87,2.6-2.17,2.6a2.68,2.68,0,0,1-2.16-1.35,14.08,14.08,0,0,1-2.09-6.6A2.39,2.39,0,0,1,152.14,25.32Zm1.17-3.61c-5.55,0-9.67,3.8-9.67,8.91s4.06,9,9.44,9,9.81-3.85,9.81-8.7a9.67,9.67,0,0,0-3.73-7.31A9.52,9.52,0,0,0,153.31,21.71Zm19,5.84c0-2.27.11-2.7.75-3l.49-.2a1,1,0,0,0,.76-1,1.12,1.12,0,0,0-.69-1c-.77-.43-2-.59-4.61-.59a9.55,9.55,0,0,0-4.08.61c-.7.33-1,.72-1,1.2s.33.8,1.48,1.18c.68.23.84.59.85,1.92,0,.78,0,1.84.07,3.15,0,.44,0,.89,0,1.33,0,1.1,0,1.51,0,2l0,1.7c0,1.33-.28,1.9-1.09,2.27l-.5.24a.85.85,0,0,0-.51.77,1,1,0,0,0,.53.87,2.22,2.22,0,0,0,1.24.2h9a5.74,5.74,0,0,1,1.05.07l.71.14a5.73,5.73,0,0,0,1.09.13c.53,0,.84-.22,1.34-1a6.36,6.36,0,0,0,1.18-3.32c0-1.28-.63-2.16-1.54-2.16-.49,0-.73.23-.88.81a3.14,3.14,0,0,1-3.49,2.6c-1.78,0-2.13-.51-2.13-3.19Zm16.38-2c0-.75.3-1,1.12-1A3.3,3.3,0,0,1,193,26.43a10.82,10.82,0,0,1,.87,4.78c0,3.72-1.25,5.59-3.75,5.59-1.09,0-1.51-.41-1.51-1.47Zm11.89,4.85a8.45,8.45,0,0,0-3.14-7c-1.59-1.19-3.48-1.67-6.55-1.67-.43,0-.82,0-1.14,0l-1.21.06c-.55,0-2,.05-2.94.05-.44,0-.7,0-1.57,0h-.84c-1.46,0-2.32.49-2.32,1.3a1.15,1.15,0,0,0,.89,1.12c.82.29.94.56.94,2s0,3.35,0,4.42c0,.9-.05,1.57-.12,2.93s-.08,1.46-.11,1.75c-.13,1.09-.28,1.34-1,1.51s-1,.49-1,1.08c0,.83.79,1.41,1.95,1.41l.86,0c.54,0,1.29-.07,1.82-.07h2.19l1.47,0,1.33,0,1.55,0C197,39.41,200.54,35.83,200.54,30.44Zm15.35,1.68c-.43,0-.58-.07-.58-.3a5.34,5.34,0,0,1,.54-1.54l.37-.89c.26-.63.45-.85.75-.85s.56.22,1.17,1.25a7.43,7.43,0,0,1,1,2c0,.2-.21.29-.69.29Zm8.94-1.59c-.54-1.13-1.16-2.37-1.87-3.71A27.38,27.38,0,0,0,221,23.64a4.4,4.4,0,0,0-3.45-2,3.3,3.3,0,0,0-2.25.87c-.56.54-.66.88-.68,2.34s-.38,2.46-1.69,5.28L211.13,34c-1.07,2.28-1.38,2.66-2.49,3-.69.24-.91.48-.91,1a1.17,1.17,0,0,0,.9,1.16,14,14,0,0,0,3.06.28c2.47,0,3.66-.49,3.66-1.5a1,1,0,0,0-.78-.91l-.45-.14a.43.43,0,0,1-.38-.48,1.43,1.43,0,0,1,.52-1.09c.26-.16.67-.2,2-.2.7,0,1.25,0,1.5,0l1.3.08c1,.07,1.39.39,1.39,1,0,.32-.19.53-.6.67-.74.25-.94.46-.94,1a1.08,1.08,0,0,0,.24.68c.4.46,1,.64,2.4.73.73,0,2.35.1,3.07.1,3.41,0,4.82-.5,4.82-1.72,0-.52-.31-.82-.92-.92s-.83-.27-1.28-1.22Zm6.35,7.13q-.59,1.34-1.2,2.46l-.45.85c-.39.74-.52,1-.66,1.27a1.94,1.94,0,0,0-.23.84c0,.57.9,1.05,2,1.05a1.19,1.19,0,0,0,1.09-.5,7.16,7.16,0,0,0,.91-2.05c.23-.6.66-1.59,1.28-3l4.62-10.31c.33-.71.68-1.45,1.07-2.21l1.16-2.28a2.56,2.56,0,0,0,.32-1.05c0-.59-.81-1-2.1-1-.8,0-1.06.22-1.4,1.16-.15.41-.35.9-.6,1.48-.07.18-.16.37-.24.57l-.36.84-.59,1.45Zm17.88-16c-4,0-7.26,2.58-7.26,5.75a5.39,5.39,0,0,0,2,4,11.06,11.06,0,0,0,4.6,2.23c1.39.43,2,.89,2,1.55s-.88,1.24-2.13,1.24a4.63,4.63,0,0,1-3.66-1.65l-.78-1.16c-.49-.74-1-1.1-1.43-1.1-.66,0-1.06.51-1.06,1.33,0,1.71.79,3.87,1.61,4.4a14.25,14.25,0,0,0,6.1,1.28c4.89,0,8.2-2.47,8.2-6.12,0-2.07-1-3.52-3.28-4.59a19.75,19.75,0,0,0-3.4-1.11c-1.37-.4-2-.9-2-1.65s.63-1.24,1.58-1.24a4.36,4.36,0,0,1,3,1.4l.9.82a2,2,0,0,0,1.35.58A1.56,1.56,0,0,0,256.94,26a4.32,4.32,0,0,0-.84-2.35c-.65-1-1.35-1.52-1.93-1.52a1.31,1.31,0,0,0-.44.07l-.51.18a.6.6,0,0,1-.26.05,1.67,1.67,0,0,1-.42-.08A10.47,10.47,0,0,0,249.06,21.7Z" transform="translate(-21.26 -21.57)"/><path class="cls-2" d="M262.2,45.9H21.26V63.47H262.2Z" transform="translate(-21.26 -21.57)"/><path class="cls-3" d="M61.39,51.49h6.54V49.74H58.71V60.46h2.68V56H67.6V54.34H61.39Z" transform="translate(-21.26 -21.57)"/><path class="cls-3" d="M72.36,49.74H69.68V60.46h2.68Z" transform="translate(-21.26 -21.57)"/><path class="cls-3" d="M74.2,57v.51c0,3.07,2.75,3,5.84,3,3.59,0,5.44-.26,5.44-3.27,0-2.74-1.17-2.91-5.46-3.11C77.3,54,77,54,77,52.68c0-1.15.43-1.35,3.09-1.35,1.87,0,2.49.05,2.49,1.21v.34h2.68v-.34c0-2.82-2.33-2.89-5.17-2.89-3.35,0-5.77.08-5.77,3,0,3.12,2.38,3,5.39,3.18,2.09.08,3.15-.12,3.15,1.42,0,1.24-.34,1.58-2.77,1.58s-3.17-.08-3.17-1.31V57Z" transform="translate(-21.26 -21.57)"/><path class="cls-3" d="M90,49.74H87.32V60.46H90V55.87h1.25l5.13,4.59h3.38L93.53,55l5.66-5.23H95.9l-4.65,4.37H90Z" transform="translate(-21.26 -21.57)"/><path class="cls-3" d="M112.56,49.65c-4.42,0-5.89.59-5.89,3.92v2.89c0,3.52,1.58,4.09,5.89,4.09s6-.66,6-4.09V53.57C118.51,50.12,116.58,49.65,112.56,49.65Zm0,1.76c2.38,0,3.33.14,3.27,2.16v2.89c0,2.08-.83,2.33-3.27,2.33-2.68,0-3.21-.2-3.21-2.33V53.57C109.4,51.87,109.68,51.41,112.56,51.41Z" transform="translate(-21.26 -21.57)"/><path class="cls-3" d="M125.82,54.77v1.56h3.51v.39c0,2-.78,2.07-3.32,2.07-3,0-3.42-.22-3.46-2.46V53.86c0-2.08.33-2.45,3.46-2.45,2.32,0,3.32,0,3.32,1.56H132c.08-3.45-2.6-3.32-6-3.32-4.32,0-6.14.63-6.14,4.21v2.47c0,3.62,1.68,4.22,6.14,4.22,5,0,6-.66,6-3.83V54.77Z" transform="translate(-21.26 -21.57)"/><path class="cls-3" d="M143.06,51.49h6.54V49.74h-9.22V60.46h2.68V56h6.21V54.34h-6.21Z" transform="translate(-21.26 -21.57)"/><path class="cls-3" d="M154,49.74h-2.76V60.46H154Z" transform="translate(-21.26 -21.57)"/><path class="cls-3" d="M155.87,57v.51c0,3.07,2.75,3,5.84,3,3.59,0,5.44-.26,5.44-3.27,0-2.74-1.17-2.91-5.46-3.11-2.72-.13-3.07-.17-3.07-1.49,0-1.15.43-1.35,3.09-1.35,1.87,0,2.49.05,2.49,1.21v.34h2.68v-.34c0-2.82-2.33-2.89-5.17-2.89-3.35,0-5.77.08-5.77,3,0,3.12,2.38,3,5.39,3.18,2.09.08,3.15-.12,3.15,1.42,0,1.24-.34,1.58-2.77,1.58s-3.17-.08-3.17-1.31V57Z" transform="translate(-21.26 -21.57)"/><path class="cls-3" d="M171.67,49.74H169V60.46h2.68V55.87h1.25l5.13,4.59h3.38L175.2,55l5.66-5.23h-3.29l-4.65,4.37h-1.25Z" transform="translate(-21.26 -21.57)"/><path class="cls-3" d="M196,51.42h.1l-.23,9h2.68V49.74h-4.39l-3.72,8h-.07l-3.8-8h-4.29V60.46H185l-.23-9h.06l4.42,9h2.4Z" transform="translate(-21.26 -21.57)"/><path class="cls-3" d="M209.39,58.43l.92,2H213L208.3,49.74h-3.94l-4.63,10.72h2.77l.87-2Zm-.59-1.55H204l2.38-5.57h0Z" transform="translate(-21.26 -21.57)"/><path class="cls-3" d="M217.91,51.49H222V49.74H211.15v1.75h4.09v9h2.67Z" transform="translate(-21.26 -21.57)"/></svg>